<?xml version="1.0" encoding="utf-8"?>
<!-- Generator: Adobe Illustrator 27.5.0, SVG Export Plug-In . SVG Version: 6.00 Build 0)  -->
<svg version="1.1" xmlns="http://www.w3.org/2000/svg" xmlns:xlink="http://www.w3.org/1999/xlink" x="0px" y="0px"
	 viewBox="0 0 750 500" style="enable-background:new 0 0 750 500;" xml:space="preserve">
<g id="BACKGROUND">
	<rect style="fill:#FFFFFF;" width="750" height="500"/>
</g>
<g id="OBJECTS">
	<g>
		<path style="fill:#F4F4F4;" d="M346.884,346.378c0,5.257-35.759,7.197-83.041,7.197c-47.282,0-81.276-6.546-85.612-9.519
			c-10.219-7.008,38.33-7.008,85.612-7.008C311.125,337.047,346.884,341.121,346.884,346.378z"/>
		<g>
			<path style="fill:#FFD2B3;" d="M229.137,325.196c-4.209,1.478-8.196,2.269-6.232,2.318c-7.896,0.251-11.901,1.023-12.152,1.023
				c-2.088-0.004-7.311-5.577-10.653-1.217c-1.803,2.352-4.094,5.138-7.394,6.684c-3.3,1.546-3.426,3.969-3.426,3.969
				s-1.42-0.418-2.256,0.125c-0.836,0.543-1.755,3.467,3.76,3.467c5.514,0,12.533-1.504,17.045-1.657
				c2.513-0.085,12.388,1.112,21.308,2.075V325.196z"/>
			<path style="opacity:0.4;fill:#FFB98B;" d="M222.905,327.514c-3.868,0.123-6.797,0.371-8.813,0.592
				c-0.359,4.633-2.381,8.736-6.65,11.827c0.124-0.006,0.266-0.021,0.387-0.025c2.513-0.085,12.388,1.112,21.308,2.075v-16.787
				C224.929,326.674,220.941,327.465,222.905,327.514z"/>
			<path style="fill:#FFD2B3;" d="M298.987,308.061c0,0,1.671,7.185,2.507,10.695c0.836,3.509,13.285,25.262,13.786,25.958
				c0.501,0.696,2.674,3.933,4.491,4.748c1.818,0.814,3.28,0.083,3.405-0.418c0.125-0.501,0.042-1.337,0-1.42
				c-0.042-0.084,3.634,0.835,6.099,0.71c2.465-0.125,4.178-0.125,5.222,0.46c1.044,0.585,2.632,0.376,2.298-0.501
				c-0.334-0.877-1.964-2.298-4.345-3.05c-2.381-0.752-8.982-2.548-9.692-3.718c-0.71-1.17-4.93-17.066-5.932-20.575
				c-1.003-3.509-2.569-5.514-4.01-7.833c-1.441-2.319-3.07-17.985-3.822-20.993C308.241,289.115,299.008,303.821,298.987,308.061z"
				/>
			<path style="opacity:0.4;fill:#FFB98B;" d="M298.987,308.061c0,0,1.671,7.185,2.507,10.695
				c0.836,3.509,13.285,25.262,13.786,25.958c0.501,0.696,2.674,3.933,4.491,4.748c1.818,0.814,3.28,0.083,3.405-0.418
				c0.125-0.501,0.042-1.337,0-1.42c-0.042-0.084,3.634,0.835,6.099,0.71c2.465-0.125,4.178-0.125,5.222,0.46
				c1.044,0.585,2.632,0.376,2.298-0.501c-0.334-0.877-1.964-2.298-4.345-3.05c-2.381-0.752-8.982-2.548-9.692-3.718
				c-0.71-1.17-4.93-17.066-5.932-20.575c-1.003-3.509-2.569-5.514-4.01-7.833c-1.441-2.319-3.07-17.985-3.822-20.993
				C308.241,289.115,299.008,303.821,298.987,308.061z"/>
			<path style="fill:#FFB98B;" d="M314.408,315.617c-0.525-0.85-1.067-1.655-1.593-2.501c-1.441-2.319-3.07-17.985-3.823-20.993
				c-0.752-3.008-9.985,11.697-10.005,15.938c0,0,1.671,7.185,2.507,10.695c0.231,0.97,1.351,3.336,2.859,6.264
				C306.815,321.167,310.615,318.072,314.408,315.617z"/>
			<path style="fill:#FFD2B3;" d="M296.059,276.907c-1.621,1.747,8.369,20.969,11.938,20.969c2.716,0,9.208-9.643,10.925-8.676
				c0,0-4.64-23.159-20.455-25.921c1.216,3.119-0.318,9.94-1.289,12.226C297.04,275.825,296.641,276.279,296.059,276.907z"/>
			<path style="fill:#FFD2B3;" d="M296.137,276.822c-11.477,10.601-36.399,15.487-42.352,17.244
				c-2.908,0.858,3.417,33.449,7.428,32.948c4.011-0.501,31.675-7.757,39.195-10.827c2.381-0.973,11.656-7.018,10.764-23.421
				C310.695,291.53,296.203,276.762,296.137,276.822z"/>
			<path style="fill:#FFB98B;" d="M288.407,345.608c0.299-0.498,4.233,0.439,4.819,0.87c0.654,0.48,2.2,2.671,2.45,3.298
				c0.251,0.627-1.128,1.567-2.6,0.501C291.603,349.211,288.031,346.234,288.407,345.608z"/>
			<g>
				<path style="opacity:0.4;fill:#FFB98B;" d="M284.888,307.058c-0.23-0.585-4.449-8.119-7.702,2.021
					c-2.488,7.754-5.906,13.656-7.38,16.01c8.322-2.078,20.349-5.373,27.194-7.668c0.054-0.031,0.114-0.062,0.167-0.093
					c-7.147,1.481,2.35-16.975,2.35-16.975S285.118,307.643,284.888,307.058z"/>
				<path style="opacity:0.4;fill:#FFB98B;" d="M256.686,295.718l-2.096,13.76c1.702,8.705,4.487,17.803,6.623,17.536
					c1.084-0.135,3.905-0.767,7.581-1.674C265.817,325.712,261.305,303.027,256.686,295.718z"/>
			</g>
			<path style="fill:#FFD6BA;" d="M297.118,282.348c-3.794-0.462-9.494,0.94-14.319,11.029c-4.825,10.089-6.893,21.682-7.833,23.437
				c-0.94,1.755,0.063,23.875-0.313,26.131c-0.376,2.256-2.131,3.697-0.877,6.141c1.253,2.444,7.708,1.191,9.65,1.441
				c1.943,0.251,2.319,1.253,3.697,1.253c1.379,0,1.379-1.191,0.752-2.193c0,0,0.919-0.251,1.42,0
				c0.501,0.251,1.17,1.295,1.796,1.671c0.627,0.376,1.976,0.446,2.256-0.042c0.449-0.783-0.877-3.217-1.797-4.512
				c-0.919-1.295-7.14-3.19-7.683-3.858c-0.543-0.669,2.551-18.398,3.007-20.847c0.456-2.449,12.53-20.413,14.378-25.051
				C303.102,292.311,303.29,283.099,297.118,282.348z"/>
			<path style="fill:#E6E8F4;" d="M241.039,334.821c0,0-12.132-5.789-3.547-13.998c8.585-8.209,16.879-5.547,16.879-5.547
				l9.571,8.174c0,0-4.831-27.755-9.28-30.513c-4.449-2.757-32.126,3.593-36.922,18.215c-3.916,11.94,2.151,24.229,13.736,25.651
				C240.153,337.868,241.039,334.821,241.039,334.821z"/>
			<path style="fill:#FFD2B3;" d="M231.226,335.722c0.251,0,4.256-0.772,12.152-1.023c-4.139-0.103-11.609,1.602-16.497-4.581
				c-6.093-7.708,4.689-25.456,19.217-19.378c14.893,6.284,26.654,21.299,26.319,27.9c-0.334,6.601-3.676,10.945-7.52,11.614
				c-3.843,0.668-32.084-3.314-36.596-3.161c-4.512,0.153-11.53,1.657-17.045,1.657c-5.515,0-4.595-2.924-3.76-3.467
				c0.836-0.543,2.256-0.125,2.256-0.125s0.125-2.423,3.426-3.969c3.3-1.546,5.592-4.333,7.394-6.684
				C223.915,330.146,229.138,335.719,231.226,335.722z"/>
			<g style="opacity:0.4;">
				<path style="fill:#FFB98B;" d="M227.444,330.756c4.883,5.4,11.949,3.845,15.934,3.943c0,0,4.308,0.152,8.903,0.836
					c4.595,0.683,6.684,5.028,6.684,5.028s-2.59-8.689-6.768-9.608C248.098,330.052,231.535,334.83,227.444,330.756z"/>
				<path style="fill:#FFB98B;" d="M243.378,334.7c-1.631,0.052-3.086,0.126-4.386,0.211
					C240.331,334.896,241.785,334.835,243.378,334.7z"/>
			</g>
			<path style="opacity:0.4;fill:#FFB98B;" d="M296.689,276.202c6.727,2.95,8.356,17.989,14.129,19.995
				c3.022-2.716,6.845-7.705,8.103-6.996c0,0-4.64-23.159-20.455-25.921c1.216,3.119-0.318,9.94-1.289,12.226
				C297.098,275.688,296.926,275.922,296.689,276.202z"/>
			<path style="fill:#911811;" d="M302.314,274.628c-0.718,0-3.918,1.528-5.138,0.877c-2.44-11.029-0.527-32.082,14.365-35.615
				c17.91-4.249,31.961,7.648,30.94,21.762l-31.216,12.976H302.314z"/>
			<path style="fill:#FFD2B3;" d="M330.878,253.661c5.709-0.05,6.998,6.212,11.602,7.991c0.848,11.673-6.63,15.071-7.275,18.018
				c-0.645,2.946,1.404,5.87-0.46,6.837c-1.865,0.967-3.039,2.486-3.177,2.763c-0.138,0.276-8.495,8.526-10.981,8.061
				c-2.486-0.465-10.497-5.023-12.224-9.443c-1.727-4.42-0.621-8.287-0.621-8.287s-2.855,1.295-4.627-2.417
				c-3.431-7.187,4.286-11.142,7.136-3.591c0.76-9.531,8.57-7.853,12.503-10.774C327.84,259.043,326.385,253.865,330.878,253.661z"
				/>
			<path style="fill:#FFB98B;" d="M289.295,349.587c-2.296-2.163-5.152-3.051-3.948-2.134c1.203,0.917,2.528,2.134,2.528,2.134
				S288.794,349.336,289.295,349.587z"/>
		</g>
	</g>
	<g>
		<path style="fill:#F4F4F4;" d="M159.728,346.296c0,2.953-28.495,5.346-63.645,5.346s-63.645-2.394-63.645-5.346
			c0-2.953,28.495-5.346,63.645-5.346S159.728,343.344,159.728,346.296z"/>
		<g>
			<path style="fill:#FFD2B3;" d="M94.515,308.381c0.386,0.129,15.049,6.007,22.766,5.511c7.717-0.495,9.684-3.605,9.684-3.605
				l9.866,21.249c0,0-2.214,4.065-10.625,7.304c-8.411,3.239-29.365,2.468-29.365,2.468L94.515,308.381z"/>
			<path style="opacity:0.44;fill:#FFB98B;" d="M103.118,341.308c0.013-11.061-0.569-21.837-5.08-31.624
				c-2.05-0.726-3.409-1.265-3.523-1.303l2.326,32.927c0,0,2.581,0.094,6.289,0.078
				C103.127,341.359,103.118,341.334,103.118,341.308z"/>
			<path style="opacity:0.44;fill:#FFB98B;" d="M126.965,310.287c0,0-0.906,1.418-3.869,2.492
				c2.44,10.32-15.891,13.916-18.88,28.599c6.871-0.069,16.808-0.542,21.99-2.538c8.411-3.239,10.625-7.304,10.625-7.304
				L126.965,310.287z"/>
			<path style="fill:#FFD2B3;" d="M156.868,324.042c0.343-0.169,3.011-1.307,3.359,1.152c0.515,3.109-2.844,7.275-5.845,6.364
				C151.38,330.647,156.868,324.042,156.868,324.042z"/>
			<path style="opacity:0.44;fill:#FFB98B;" d="M156.868,324.042c0.343-0.169,3.011-1.307,3.359,1.152
				c0.515,3.109-2.844,7.275-5.845,6.364C151.38,330.647,156.868,324.042,156.868,324.042z"/>
			<path style="fill:#FFD2B3;" d="M157.11,292.475c-6.263-2.907-20.221-5.636-26.137,8.77c-5.917,14.405-5.891,16.835-5.437,21.856
				c0.515,5.692,2.533,11.969,7.935,14.25c4.09,1.727,19.414,0.732,22.352-6.889c2.744-7.117,7.889-9.861,11.404-17.835
				C168.751,309.172,167.642,297.362,157.11,292.475z"/>
			<path style="fill:#FFB98B;" d="M157.11,292.475c-6.263-2.907-20.221-5.636-26.137,8.77c-0.811,1.975-1.507,3.719-2.109,5.281
				c0.026-0.037,0.039-0.073,0.067-0.11c0.449-0.588,0.509,1.197,0.751,0.679c2.069-4.437,4.75-3.184,6.506-4.437
				c1.878-1.341,2.832-6.38,5.107-7.285c8.205-3.262,10.456,5.613,14.601,8.485c3.467,2.403,5.759,1.307,8.974,3.88
				c1.935,1.548,1.977,5.797-0.089,9.387c0.864-1.322,1.693-2.789,2.447-4.499C168.751,309.172,167.642,297.362,157.11,292.475z"/>
			<path style="fill:#FFD2B3;" d="M128.471,309.796c0,0,2.006-3.045,0.855-4.459c-2.512-3.087-5.914,1.201-5.4,6.346
				c0.452,4.523,3.258,3.173,3.258,3.173L128.471,309.796z"/>
			<path style="fill:#FFD2B3;" d="M115.673,325.459c5.48-5.333,10.482-1.858,10.726,2.581c0.203,3.694-0.906,7.54-0.906,7.54
				c2.073,0.1,7.189,0.834,12.33,1.932c1.03,0.22,4.13-0.276,7.159-0.138c7.702,0.35,8.49,1.262,11.152,1.996
				c1.224,0.338,1.239,3.253-4.75,2.822c-1.454,1.475-3.381,3.454-4.434,3.816c-1.746,0.6-2.344,0.567-5.272,0.549
				c-4.681-0.028-4.268-1.543-5.71-1.707c-0.826-0.094-16.524,4.387-23.569,1.036C108.818,344.184,112.18,328.859,115.673,325.459z"
				/>
			<path style="fill:#E6E8F4;" d="M68.677,336.399c0,0-12.62-12.576-3.874-24.734c8.746-12.159,31.383-3.798,31.383-3.798
				s5.788,23.795,2.058,34.599c0,0-12.712,3.436-23.538,0C71.634,341.49,71.809,338.357,68.677,336.399z"/>
			<path style="fill:#FFD2B3;" d="M74.965,310.583c7.203-1.945,15.068,4.645,18.775,16.74c2.819,9.2,4.519,18.942-3.5,19.991
				c-22.113,2.891-36.32-1.807-40.035-1.129c-2.62,0.478-6.421,0.256-8.762,0.57c-3.729,0.501-3.145-2.359-1.258-2.201
				c1.205-1.939,4.843-2.85,5.927-6.477c0.906-3.032,3.999-2.455,6.41-0.359c2.411,2.097,14.794-4.526,20.77-1.591
				C68.822,331.534,61.634,314.182,74.965,310.583z"/>
			<path style="opacity:0.44;fill:#FFB98B;" d="M68.013,325.817c1.14,4.366,3.437,8.419,5.277,10.309c0,0,3.571,1.143,7.189,3.612
				C84.095,342.207,69.43,330.004,68.013,325.817z"/>
		</g>
	</g>
	<g>
		<path style="fill:#F4F4F4;" d="M576.026,339.095c0-6.018-50.985-7.967-109.776-7.967c-58.791,0-119.158,0-106.451,8.023
			c3.337,2.107,24.731,5.588,51.494,8.082c-8.182,4.656,6.928,17.107,57.766,14.832c46.494-2.08,67.611-11.745,56.772-13.809
			c-0.028-0.006-0.065-0.01-0.095-0.015C555.615,346.276,576.026,342.903,576.026,339.095z"/>
		<g>
			<g>
				<path style="fill:#FFD2B3;" d="M531.118,326.296c0,0,0.629-1.677,4.193-1.607c3.564,0.07,6.08,2.236,10.552,2.446
					c3.313,0.155,8.919,0.856,12.326,1.537c2.085,0.417,2.307,2.278,1.581,2.341c1.406-0.297,3.477,1.039,2.69,2.166
					c0.943,0.026,2.743,0.962,1.747,2.376c0.754,0.174,2.666,1.593,1.223,3.389c-1.352,1.683-7.198,1.607-11.845,1.572
					c-4.647-0.035-18.938-0.944-20.266-0.734C531.991,339.993,531.118,326.296,531.118,326.296z"/>
				<path style="fill:#FFB98B;" d="M544.153,339.477c-2.625-4.087-2.975-8.558-2.133-13.039c-2.37-0.711-4.307-1.703-6.71-1.75
					c-3.564-0.07-4.193,1.607-4.193,1.607s0.874,13.697,2.201,13.488c0.789-0.125,6.149,0.145,11.347,0.392
					C544.495,339.943,544.311,339.724,544.153,339.477z"/>
				<path style="fill:#B3392D;" d="M460.025,340.529c0,0,8.266-2.246,16.007-0.934c7.741,1.312,35.164,7.741,45.005,6.167
					c9.841-1.574,15.089-4.855,16.532-5.904c1.443-1.05,1.312-15.287-4.986-16.631c-6.298-1.344-12.859-0.819-15.22-2
					c-2.362-1.181-18.238-9.841-24.142-9.447c-5.905,0.394-43.037,7.085-43.037,7.085S454.908,340.807,460.025,340.529z"/>
			</g>
			<path style="fill:#44B3DF;" d="M465.496,249.019c-10.417,1.109-30.051,10.276-36.948,22.609
				c-5.639,10.082-0.017,43.125,1.732,45.924c1.75,2.799,30.357,9.097,39.979,7.523c9.622-1.574,26.067-8.514,27.816-12.217
				c1.75-3.703,2.449-51.464-2.099-55.312C491.428,253.697,477.432,247.749,465.496,249.019z"/>
			<path style="opacity:0.2;fill:#44B3DF;" d="M465.496,249.019c-10.417,1.109-30.051,10.276-36.948,22.609
				c-5.639,10.082-0.017,43.125,1.732,45.924c1.75,2.799,30.357,9.097,39.979,7.523c9.622-1.574,26.067-8.514,27.816-12.217
				c1.75-3.703,2.449-51.464-2.099-55.312C491.428,253.697,477.432,247.749,465.496,249.019z"/>
			<g>
				<path style="fill:#FFD2B3;" d="M409.965,324.984c0,0-0.687-1.832-4.579-1.755c-3.893,0.076-6.64,2.442-11.525,2.671
					c-3.618,0.17-9.741,0.935-13.461,1.679c-2.277,0.455-2.519,2.488-1.727,2.557c-1.536-0.324-3.797,1.135-2.938,2.366
					c-1.03,0.029-2.996,1.051-1.908,2.595c-0.824,0.19-2.912,1.74-1.336,3.702c1.477,1.837,7.861,1.755,12.937,1.717
					c5.076-0.038,20.683-1.03,22.134-0.801C409.011,339.943,409.965,324.984,409.965,324.984z"/>
				<path style="fill:#FFB98B;" d="M405.386,323.229c-3.162,0.062-5.587,1.62-8.997,2.331c3.399,3.882,6.065,7.708,4.705,13.929
					c-0.028,0.129-0.068,0.253-0.099,0.381c3.347-0.15,6.008-0.243,6.566-0.155c1.45,0.229,2.404-14.73,2.404-14.73
					S409.278,323.152,405.386,323.229z"/>
				<path style="fill:#D14B3C;" d="M451.315,317.29c8.098,2.624,16.671,7.26,13.959,16.795c-2.712,9.534-6.668,13.525-24.384,12.31
					c-17.716-1.215-35.448-6.012-36.673-6.624c-1.225-0.612-2.748-12.858,1.137-16.27
					C408.424,320.806,443.216,314.665,451.315,317.29z"/>
			</g>
			<g>
				<path style="fill:#21586E;" d="M487.579,294.984c0,0,0.984,2.755,9.906,0c8.922-2.755,9.429-4.253,9.25-5.642
					c-0.178-1.389-2.034-6.429-2.034-6.429S487.514,287.046,487.579,294.984z"/>
				<path style="fill:#FFD2B3;" d="M488.584,293.048c0,0,1.663,11.296,2.056,14.182c0.394,2.887-1.815,36.301-1.881,37.351
					c-0.066,1.05,15.352,1.181,15.089,1.181c-0.262,0,4.133-33.892,4.133-38.007c0-5.817-4.196-22.612-4.196-22.612
					S490.426,286.674,488.584,293.048z"/>
				<path style="fill:#FFB98B;" d="M505.534,292.648c-0.92-4.191-1.747-7.504-1.747-7.504s-13.36,1.531-15.202,7.904
					c0,0,0.119,0.811,0.301,2.048C493.13,292.304,499.403,291.79,505.534,292.648z"/>
				<g>
					<path style="fill:#FFD2B3;" d="M506.89,346.394c0,0,4.351,2.736,5.882,3.698c1.531,0.962,1.924,2.274,1.618,3.149
						c-0.306,0.875-1.268,1.618-3.368,0.7C508.923,353.022,506.89,346.394,506.89,346.394z"/>
					<g>
						<path style="fill:#FFDFC9;" d="M487.273,344.887c-2.056,1.968-2.449,3.718-2.231,4.986c0.219,1.268,1.148,4.549,3.307,4.505
							c2.16-0.044,2.16-3.455,2.16-3.455s2.406,0.262,3.543,1.574c1.137,1.312,0.962,2.974,2.887,3.28
							c1.924,0.306,2.537-0.962,2.449-2.274s-0.437-2.887-0.437-2.887s1.487,0.787,2.143,2.056c0.656,1.268,1.137,3.237,2.799,3.455
							c1.662,0.219,2.887-1.575,2.449-3.236c0,0,1.662,2.58,3.28,2.755c1.618,0.175,2.843-0.394,2.668-1.575
							c-0.175-1.181-4.181-7.426-7.173-9.01C500.656,342.701,489.329,342.919,487.273,344.887z"/>
						<g>
							<path style="fill:#FFD2B3;" d="M494.052,352.497c0.07,0.081,0.123,0.166,0.184,0.25c-0.008-0.015-0.012-0.029-0.02-0.044
								c-1.29-2.279-3.969-5.542-3.706-4.885c0.262,0.656,0,3.105,0,3.105S492.915,351.185,494.052,352.497z"/>
							<path style="fill:#FFD2B3;" d="M505.249,349.13c0.262,0.962,1.093,3.761,1.093,3.761s1.003,1.542,2.206,2.32
								C507.91,351.989,504.987,348.168,505.249,349.13z"/>
						</g>
					</g>
				</g>
				<path style="fill:#44B3DF;" d="M496.363,257.998c3.149,2.996,8.536,16.124,10.373,31.344
					c-0.304-2.334-13.749-1.057-19.156,5.642c0,0-3.018-18.894-2.362-25.323C485.873,263.231,492.332,254.163,496.363,257.998z"/>
			</g>
			<g>
				<path style="fill:#FFB98B;" d="M469.901,251.452c-5.113-0.993-16.961,1.866-17.486,11.327
					c-0.525,9.462,3.96,26.606,15.363,25.907c11.403-0.7,15.602-15.506,15.252-21.224
					C482.681,261.744,481.456,253.697,469.901,251.452z"/>
				<g>
					<path style="fill:#FFD2B3;" d="M456.351,247.092c-0.129,3.839-0.831,8.791-0.241,12.793
						c0.591,4.002,5.595,14.117,15.758,16.486c10.035,2.339,18.916-4.854,20.784-7.63c2.34-3.477,9.491-19.897,10.683-25.103
						c2.29-9.999,3.181-22.639-13.132-27.906C460.944,206.286,456.789,234.103,456.351,247.092z"/>
					<path style="fill:#911811;" d="M457.8,245.912c0,0,1.351-6.495,5.287-7.873c3.936-1.378,2.777-6.364,7.96-7.348
						c5.183-0.984,10.514,10.293,19.244,12.453c9.021,2.232,12.056-1.474,13.045,0.495c5.106-6.584,3.488-22.657-7.49-29.825
						c-11.662-7.615-29.913-4.151-35.82,4.544c-5.839,8.594-5.146,20.993-5.146,20.993L457.8,245.912z"/>
					<path style="fill:#FFD2B3;" d="M453.793,236.727c-4.461,0.918-2.952,13.252,1.509,12.858
						C459.763,249.192,457.619,235.939,453.793,236.727z"/>
				</g>
			</g>
			<g>
				<path style="fill:#21586E;" d="M419.7,298.833c-0.931,4.323,20.425,11.853,21.168,8.922
					C441.656,297.813,420.475,295.237,419.7,298.833z"/>
				<path style="fill:#FFD2B3;" d="M421.8,297.171c0,0-5.052,18.391-5.139,26.089c-0.087,7.698,9.011,28.973,11.46,31.422
					c2.449,2.449,12.523-10.391,12.523-10.391s-6.16-13.686-5.985-19.075c0.175-5.389,5.423-20.172,5.423-20.172
					S433.434,295.159,421.8,297.171z"/>
				<path style="fill:#FFB98B;" d="M439.56,306.547c0.321-0.94,0.521-1.504,0.521-1.504s-6.648-9.884-18.282-7.873
					c0,0-1.001,3.647-2.12,8.371C420.859,302.332,435.909,304.664,439.56,306.547z"/>
				<path style="fill:#44B3DF;" d="M429.235,270.841c-4.111,3.936-8.485,22.393-9.535,27.991c1.225-2.405,21.897,5.385,21.168,8.922
					c0,0,3.499-15.92,3.096-22.681C443.625,279.368,439.033,261.46,429.235,270.841z"/>
				<g>
					<path style="fill:#FFB98B;" d="M435.572,341.546c0.082,0.033,10.501,1.723,12.546,3.33c1.017,0.8,3.871,6.265,3.051,7.217
						c-0.82,0.951-2.57,0.536-3.641-0.426c-1.071-0.963-3.215-3.752-3.215-3.752L435.572,341.546z"/>
					<g>
						<g>
							<polygon style="fill:#FFE1AE;" points="443.564,355.752 443.844,356.526 447.348,360.968 449.287,360.266 449.136,354.61 
								448.856,353.836 							"/>
							<polygon style="fill:#FFEAC7;" points="445.106,355.194 445.386,355.968 447.913,360.763 448.723,360.47 447.595,355.168 
								447.315,354.394 							"/>
						</g>
						<path style="fill:#3C3C3B;" d="M449.303,361.328l-0.016-1.062l-1.939,0.702l0.668,0.826
							C448.449,362.329,449.314,362.016,449.303,361.328z"/>
						<g>
							<path style="fill:#FFFFFF;" d="M433.335,323.318l2.62-0.948c0.738-0.267,1.552,0.115,1.82,0.852l0.643,1.777l-5.292,1.915
								l-0.643-1.777C432.216,324.4,432.598,323.585,433.335,323.318z"/>
						</g>
						<g>
							<path style="fill:#C7C6C6;" d="M433.113,326.919l5.318-1.925c0.234-0.085,0.492,0.036,0.577,0.27l0.244,0.675l-6.165,2.232
								l-0.244-0.675C432.758,327.262,432.879,327.004,433.113,326.919z"/>
						</g>
						<g>
							<path style="fill:#FBDF4E;" d="M443.855,356.488c0.185-0.659,0.972-0.93,1.524-0.525l0.007,0.005l-10.321-28.512
								l-1.541,0.558l10.321,28.512L443.855,356.488z"/>
							<path style="fill:#FBDF4E;" d="M449.098,354.584l0.039,0.026l-10.321-28.512l-1.541,0.558l10.321,28.512
								C447.754,354.502,448.53,354.201,449.098,354.584z"/>
							<path style="fill:#3C3C3B;" d="M445.533,355.651c0.306-0.659,1.09-0.943,1.747-0.632l0.316,0.149l-10.321-28.512l-2.209,0.8
								l10.321,28.512L445.533,355.651z"/>
						</g>
					</g>
					<g>
						<path style="fill:#FFDFC9;" d="M432.602,341.126c-1.359,0.004-3.934,1.671-4.459,3.77c-0.525,2.099-0.986,10.018,1.047,12.216
							c1.747,1.888,9.381,2.624,11.087,2.427c1.706-0.197,1.968-0.853,1.968-0.853c0.531,0.024,3.674-0.361,3.083-2.821
							c2.078,0.153,3.149-3.674,0.033-5.15c1.476-0.066,1.902-3.838-1.443-5.38C441.251,344.106,436.854,341.112,432.602,341.126z"
							/>
						<g>
							<path style="fill:#FFD2B3;" d="M440.643,355.8c1.932,0.885,4.231,1.774,3.95,2.166c0.583-0.425,0.98-1.084,0.736-2.1
								c0,0-4.33-0.59-7.392-1.534C437.703,354.259,439.02,355.056,440.643,355.8z"/>
							<path style="fill:#FFD2B3;" d="M435.023,359.15c-0.279-0.063-0.518-0.102-0.734-0.127
								C434.534,359.068,434.778,359.11,435.023,359.15z"/>
							<path style="fill:#FFD2B3;" d="M436.101,359.306c1.838,0.238,3.49,0.313,4.177,0.233c1.706-0.197,1.968-0.853,1.968-0.853
								s-3.376-0.139-6.495-1.115C434.648,357.225,439.119,359.452,436.101,359.306z"/>
							<path style="fill:#FFD2B3;" d="M439.95,349.108c0.831,0.704,2.908,0.853,5.412,1.607c0.707-0.031,1.167-0.915,1.093-1.995
								C446.376,350.085,439.332,348.585,439.95,349.108z"/>
						</g>
					</g>
				</g>
			</g>
		</g>
	</g>
	<g>
		<ellipse style="fill:#F4F4F4;" cx="642.279" cy="350.718" rx="79.657" ry="7.301"/>
		<g>
			<g>
				<path style="fill:#B3392D;" d="M675.063,262.495c1.52,2.28-15.577,19.865-20.95,16.608c0,0-5.256-12.058,5.032-19.075
					C665.076,255.982,675.063,262.495,675.063,262.495z"/>
				<g>
					<g>
						<path style="fill:#FFD2B3;" d="M643.149,265.317c0.164,1.228,13.376,7.335,14.767,12.745
							c1.391,5.409-1.089,9.942-1.589,14.426c-0.566,5.08,3.64,22.838,3.546,27.542c-0.066,3.296,11.779-3.872,11.779-3.872
							c0.416-7.572,7.648-35.788,7.645-41.722c-0.002-4.253-9.118-15.631-9.118-15.631
							C668.16,252.634,643.577,251.608,643.149,265.317z"/>
					</g>
					<g>
						<path style="fill:#FFB98B;" d="M657.38,276.788c2.158-2.397,12.798-11.164,19.296-8.719c-2.694-4.511-6.499-9.265-6.499-9.265
							c-2.018-6.171-26.601-7.196-27.029,6.513C643.3,266.449,654.539,271.731,657.38,276.788z"/>
					</g>
					<path style="fill:#E6E8F4;" d="M660.208,330.97c1.185,3.02,32.727-12.795,32.727-12.795s-0.611-4.815-5.842-5.606
						c-4.587-0.694-12.185,2.177-14.104,1.809c0,0,0.229-1.678-0.349-2.335c-0.314-0.356-2.316-0.665-2.822,0.819
						c-0.893,2.614-3.022,5.735-6.196,6.745c-2.802,0.892-3.748,0.423-3.748,0.423C658.732,321.925,658.999,327.891,660.208,330.97z
						"/>
					<path style="fill:#690700;" d="M660.208,330.97c0.367,1.466,1.654,3.248,6.454,2.542c4.799-0.706,16.476-2.232,22.026-6.137
						c5.55-3.904,4.79-8.56,3.887-10.018c-1.858-3.001-6.696-1.458-13.847,2.325C672.516,322.967,658.896,325.734,660.208,330.97z"
						/>
				</g>
				<g>
					<path style="fill:#FFD2B3;" d="M604.614,250.699c0,0-4.603,26.44-4.151,35.025c0.452,8.585,6.343,46.139,7.246,47.947
						c0.904,1.807,12.79,4.67,13.016-0.752c0.226-5.422,2.033-27.11,2.033-31.403c0-4.292-1.356-8.359-2.033-9.94
						c-0.678-1.581,8.783-37.558,8.783-39.14S605.539,246.533,604.614,250.699z"/>
					<path style="fill:#FFB98B;" d="M620.961,289.209c1.472-8.316,8.547-35.405,8.547-36.773c0-1.581-23.969-5.903-24.894-1.737
						c0,0-4.25,24.419-4.179,33.939C607.4,284.756,614.975,285.544,620.961,289.209z"/>
					<path style="fill:#E6E8F4;" d="M603.668,327.271c0,0,7.23-0.904,10.731,0c3.502,0.904,1.582,5.196,3.05,5.874
						c1.469,0.678,3.249-0.29,3.44-3.138c0,0,3.18,4.296,3.168,11.073c-1.517,4.264-7.427,8.5-10.251,9.404
						c-2.824,0.904-18.977,1.864-22.197-1.694c-0.932-7.371,9.65-13.151,11.522-15.673
						C603.685,332.372,601.974,328.514,603.668,327.271z"/>
					<g>
						<path style="fill:#690700;" d="M623.707,341.91c-1.923,3.971-7.26,7.73-9.901,8.575c-2.746,0.879-18.057,1.798-21.865-1.422
							c-0.009,0.006-0.017,0.013-0.026,0.019c-0.955,0.651-0.41,2.033-0.306,2.857c3.219,3.558,19.373,2.598,22.197,1.694
							c2.824-0.904,8.734-5.14,10.251-9.404c0.001-0.732,0-1.857-0.35-2.319C623.707,341.911,623.707,341.91,623.707,341.91z"/>
					</g>
				</g>
				<path style="fill:#D14B3C;" d="M635.587,267.633c5.254,3.496,13.533,8.431,18.526,11.47c0.434-4.722,16.885-19.694,20.95-16.608
					c0,0-16.608-21.71-21.71-24.315c-5.102-2.605-48.305-3.257-48.305-3.257c-3.003,9.842-6.079,31.407-7.056,43.637
					c0,0,14.634,7.743,26.92,5.102C624.913,283.662,631.033,274.801,635.587,267.633z"/>
			</g>
			<g>
				<path style="fill:#21586E;" d="M589.743,183.037c0,0-0.398,3.112,5.464,8.756c5.862,5.645,8.684,5.572,8.684,5.572l6.368-7.526
					C610.259,189.839,592.674,178.695,589.743,183.037z"/>
				<g>
					<g>
						<path style="fill:#FFD2B3;" d="M655.592,183.663c0,0,16.016,14.48,17.354,17.599c-0.724,3.064-0.007,16.322-0.581,18.764
							c-0.574,2.442-4.471,2.897-5.893,3.937c-2.428,1.774-3.481,7.076-3.627,9.173c-0.036,0.524,0.052,2.238,1.798,3.954
							c0,0-0.815,2.284-0.944,4.208c-0.111,1.647,4.229,3.342,5.332,1.085c2.605,0.373,8.661,0.593,9.502,0.134
							c1.62-0.883,6.173-7.144,6.187-9.842c0.015-2.698-1.937-5.554-1.925-6.766c0.012-1.212,4.344-24.817,3.882-28.544
							c-0.462-3.727-17.595-22.225-17.595-22.225L655.592,183.663z"/>
						<path style="fill:#FFB98B;" d="M670.129,197.69c0.695-4.897,3.561-9.767,7.467-12.964c-4.303-5.039-8.513-9.586-8.513-9.586
							l-13.49,8.523C655.592,183.663,665.169,192.321,670.129,197.69z"/>
						<path style="fill:#FFB98B;" d="M667.151,228.965c0.047-0.904-0.742,3.587-4.086,5.667c0.232,0.715,0.692,1.586,1.579,2.457
							C664.643,237.089,667.104,229.869,667.151,228.965z"/>
					</g>
					<g>
						<path style="fill:#44B3DF;" d="M660.05,163.978c4.451,2.931,13.032,12.328,15.108,14.825c0,0-4.112,13.026-8.996,16.283
							c0,0-11.609-6.73-12.969-11.398C651.833,179.02,655.6,161.047,660.05,163.978z"/>
						<path style="opacity:0.44;fill:#44B3DF;" d="M660.05,163.978c4.451,2.931,13.032,12.328,15.108,14.825
							c0,0-4.112,13.026-8.996,16.283c0,0-11.609-6.73-12.969-11.398C651.833,179.02,655.6,161.047,660.05,163.978z"/>
					</g>
				</g>
				<g>
					<g>
						<path style="fill:#FFD2B3;" d="M609.594,186.369c0,0-17.32,20.269-18.384,23.492c-0.986,2.99-4.685,19.775-4.688,22.284
							c-0.003,2.509,2.598,3.945,3.743,5.283c1.955,2.286,1.76,7.687,1.419,9.761c-0.085,0.518-0.565,2.166-2.66,3.434
							c0,0,0.267,2.41-0.05,4.312c-0.271,1.628-4.885,2.28-5.438-0.17c-2.621-0.237-8.565-1.416-9.278-2.055
							c-1.373-1.232-4.364-8.373-3.757-11.001c0.606-2.629,3.163-4.959,3.43-6.141c0.267-1.182,3.974-31.534,5.282-35.054
							c1.307-3.52,15.909-22.539,15.909-22.539L609.594,186.369z"/>
						<path style="fill:#FFB98B;" d="M588.454,242.141c0.162-0.89-0.103,3.661,2.673,6.455c-0.391,0.642-1.038,1.384-2.102,2.028
							C589.025,250.624,588.292,243.031,588.454,242.141z"/>
					</g>
					<g>
						<path style="fill:#FFB98B;" d="M598.65,199.565c5.106-6.363,10.944-13.196,10.944-13.196l-14.472-8.395
							c0,0-4.078,5.312-8.117,10.841C591.702,189.047,600.097,196.308,598.65,199.565z"/>
						<path style="fill:#FFB98B;" d="M588.454,242.141c0.162-0.89-0.103,3.661,2.673,6.455c-0.391,0.642-1.038,1.384-2.102,2.028
							C589.025,250.624,588.292,243.031,588.454,242.141z"/>
					</g>
				</g>
				<g>
					<path style="fill:#44B3DF;" d="M631.86,155.791c-4.233,0-18.83,2.931-24.858,6.622c-4.554,2.788-16.065,19.647-17.259,20.624
						c0,0,10.783,2.986,14.148,14.328l4.197-3.763c0,0-2.171,37.631-4.993,45.012c0,0,43.203,11.072,54.926-0.217
						c-1.302-6.252,4.36-64.863,2.605-73.488C660.126,162.453,647.708,155.791,631.86,155.791z"/>
					<g style="opacity:0.2;">
						<path style="fill:#44B3DF;" d="M614.97,186.583c-1.368,0.724-6.882,7.02-6.882,7.02s-0.639,11.068-1.673,22.376
							C607.53,205.344,616.337,185.859,614.97,186.583z"/>
						<path style="fill:#44B3DF;" d="M660.626,164.909c-0.5-2.456-12.917-9.118-28.766-9.118c-0.595,0-1.4,0.06-2.352,0.17
							l-1.895,9.347c6.237,6.368,30.697,9.834,32.991,17.808C661.014,174.428,661.146,167.468,660.626,164.909z"/>
					</g>
				</g>
			</g>
			<g>
				<path style="fill:#FFB98B;" d="M623.11,137.836c0,0,0.448,20.373,0.714,22.325c0.57,4.179,6.86,8.548,17.133,8.547
					c8.898,0,8.508-8.452,9.362-11.871c0.902-3.609,2.872-14.496,2.872-14.496L623.11,137.836z"/>
				<path style="fill:#FFB98B;" d="M675.137,137.212c0.472,5.88-7.035,13.419-11.567,9.995c-2.979-2.25-2.329-7.965,0.528-11.554
					C667.06,131.932,674.629,130.888,675.137,137.212z"/>
				<path style="fill:#FFD2B3;" d="M644.919,160.448c17.886,2.584,28.363-7.071,26.328-21.614
					c-1.466-10.478,7.264-26.307-12.712-36.626c-18.853-9.739-39.273,0.545-41.69,17.908
					C613.721,142.556,624.819,157.544,644.919,160.448z"/>
				<path style="fill:#690700;" d="M623.11,137.836c0,0-1.758-13.483,4.555-17.965c8.656-6.145,5.989-13.766,15.498-14.722
					c10.179-1.023,11.579,4.866,25.982,6.325c0.543-12.142-33.186-26.971-51.506-7.878c-8.401,8.755-3.397,31.81-3.397,31.81
					L623.11,137.836z"/>
				<path style="fill:#FFD2B3;" d="M610.966,136.938c-0.807,5.843,6.257,13.799,10.977,10.639c3.102-2.077,2.78-7.819,0.133-11.566
					C619.331,132.128,611.835,130.653,610.966,136.938z"/>
			</g>
		</g>
	</g>
</g>
</svg>
